<?xml version="1.0" encoding="utf-8"?>
<!-- Generator: Adobe Illustrator 25.2.1, SVG Export Plug-In . SVG Version: 6.00 Build 0)  -->
<svg version="1.1" id="Layer_1" xmlns="http://www.w3.org/2000/svg" xmlns:xlink="http://www.w3.org/1999/xlink" x="0px" y="0px"
	 viewBox="0 0 386 217" style="enable-background:new 0 0 386 217;" xml:space="preserve">
<style type="text/css">
	.st0{fill:#CC0000;}
	.st1{fill:#FFFFFF;}
	.st2{fill:none;}
</style>
<rect class="st0" width="386" height="217"/>
<g>
	<path class="st1" d="M144.5,130.1c-0.7-2.3-0.7-4.4-0.7-6.7v-17.1c0-5.8,0.1-12.4,1.5-18c5-1.2,10.6-1.3,16.5-1.3h13
		c0.2,0.9,0.3,1.8,0.3,2.7c0,0.9-0.1,1.8-0.3,2.7c-1.8,0.6-3.6,0.6-5.5,0.6h-7.2c-3.8,0-7.2,0-10.6,0.7c-0.5,3.6-0.6,7.8-0.6,12.6
		h19.4c0.2,0.9,0.3,1.7,0.3,2.6c0,0.9-0.1,1.9-0.3,2.8c-1.9,0.6-3.6,0.6-5.6,0.6h-13.8V130c-1,0.2-2.1,0.3-3.1,0.3
		C146.7,130.3,145.6,130.2,144.5,130.1z"/>
	<path class="st1" d="M179.3,130c-0.3-2-0.4-4-0.4-6V93c0-2.1,0-4.1,0.6-6.1c0.9-0.2,1.8-0.3,2.7-0.3c0.9,0,1.8,0.1,2.7,0.3
		c0.6,2,0.6,4.1,0.6,6.1V124c0,1.9,0.1,3.7-0.4,6c-0.9,0.2-1.9,0.4-2.9,0.3C181.4,130.4,180.3,130.3,179.3,130z"/>
	<path class="st1" d="M192.3,142.4l5.9-13.5l-8.3-20.1c-0.9-2.3-2.3-5.6-2.4-8.1c1.1-0.3,2.2-0.4,3.3-0.4c1.1,0,2.1,0.1,3.1,0.3
		l7.8,20.4l4.2-9.2c1.3-3,3.2-7.9,4-11.2c2.1-0.5,4.3-0.5,6.5,0c-0.4,3.7-2.5,8.1-4.7,13l-12.5,28.7c-1.1,0.2-2.3,0.3-3.4,0.3
		C194.8,142.8,193.5,142.6,192.3,142.4z"/>
	<path class="st1" d="M225.1,130l-6-22.5c-0.7-2.6-1.3-4.9-1.5-6.8c2.3-0.5,4.7-0.5,6.9-0.1l5.3,22.5l8.2-22.3
		c0.9-0.2,1.8-0.3,2.7-0.3c1,0,1.9,0.1,2.9,0.3l8.2,22.3l5.3-22.5c1.1-0.2,2.2-0.3,3.3-0.3c1.2,0,2.5,0.1,3.7,0.4
		c-0.2,2.2-0.8,4.4-1.4,6.8l-5.8,22.5c-1.6,0.4-2.9,0.6-4,0.6s-2.5-0.2-4.3-0.6l-7.6-20.3l-7.4,20.3c-1.7,0.4-2.9,0.6-4.1,0.6
		C228.2,130.6,226.9,130.4,225.1,130z"/>
	<path class="st1" d="M266.8,120.5v-2.3c0-4.4,0.2-11.4,2-15.9c4.3-2.1,8-3,11.5-3c7.5,0,13.5,2,13.5,10.3v12.3
		c0,2.7-0.2,5.4-0.5,8.1c-0.8,0.2-1.6,0.3-2.4,0.3c-1,0-1.9-0.1-2.9-0.3l-0.5-2.9c-2.1,2.2-5.8,3.5-9.7,3.5
		C273.9,130.7,266.8,129,266.8,120.5z M287.1,122v-15.3c-1.3-1.1-4.1-1.6-6.8-1.6s-5.5,0.5-6.9,1.6v16.5c1.5,1.2,3.4,1.7,5.4,1.7
		C281.7,124.8,284.8,123.7,287.1,122z"/>
	<path class="st1" d="M300.7,142.4l5.9-13.5l-8.3-20.1c-0.9-2.3-2.3-5.6-2.4-8.1c1.1-0.3,2.2-0.4,3.3-0.4c1.1,0,2.1,0.1,3.2,0.3
		l7.8,20.4l4.2-9.2c1.3-3,3.2-7.9,4-11.2c1.1-0.2,2.2-0.4,3.3-0.3c1.1,0,2.2,0.1,3.2,0.3c-0.4,3.7-2.5,8.1-4.7,13l-12.5,28.7
		c-1.1,0.2-2.3,0.3-3.4,0.3C303.1,142.8,301.9,142.6,300.7,142.4z"/>
	<path class="st1" d="M78.5,124c0.8-1.2,1.3-2.6,1.4-4.1l-6.5,1.3c-0.2,0.1-0.5,0.1-0.7,0.1c-2,0-3.6-1.6-3.6-3.6
		c0-1.7,1.2-3.2,2.9-3.6l14.7-3c2.3-0.5,4.2-1.8,5.5-3.7c0.8-1.2,1.3-2.7,1.4-4.2l-6.5,1.3c-0.2,0.1-0.5,0.1-0.7,0.1
		c-1.7,0-3.2-1.2-3.6-2.9c-0.4-2,0.9-3.9,2.9-4.3l14.5-3c2.8-0.6,4.5-2.9,5.2-4.2c0.7-1.2,1.1-2.5,1.3-3.8l-45.6,9.4v34.4l11.7-2.4
		C75.1,127.3,77.2,126,78.5,124z"/>
	<path class="st1" d="M90.1,69.7c-12.8,0-23.9,2.6-29.1,6.3v12.3l50-10.3c1.1-0.2,2.1,0.5,2.3,1.5c0,0,0,0,0,0l0.3,1.6
		c0.8,4.1,0.1,8.7-2,12.5c-2.3,4.2-5.9,6.9-10.1,7.8l-0.8,0.2c0.2,3.5-0.8,6.9-2.7,9.8c-2.4,3.5-6,5.9-10.2,6.7l-0.8,0.2
		c0.4,7.9-5,14.9-12.7,16.5l-13.3,2.7v3.3c5.2,3.7,16.3,6.3,29.1,6.3s23.9-2.6,29.1-6.3V76C114,72.3,102.9,69.7,90.1,69.7z"/>
	<path class="st2" d="M90.2,69.7c-12.8,0-23.9,2.6-29.1,6.3l0,64.9c5.2,3.7,16.3,6.3,29.1,6.3s23.9-2.6,29.1-6.3l0-64.9
		C114.1,72.3,102.9,69.7,90.2,69.7z"/>
	<path class="st2" d="M90.1,69.7c-12.8,0-23.9,2.6-29.1,6.3v64.9c5.2,3.7,16.3,6.3,29.1,6.3s23.9-2.6,29.1-6.3V76
		C114,72.3,102.9,69.7,90.1,69.7z"/>
</g>
</svg>
